<svg viewBox="0 0 120 120" fill="none" xmlns="http://www.w3.org/2000/svg">
  <rect width="120" height="120" rx="24" fill="#fff1f2"/>
  <defs>
    <linearGradient id="envGrad" x1="20" y1="35" x2="100" y2="105" gradientUnits="userSpaceOnUse">
      <stop offset="0%" stop-color="#fecdd3"/>
      <stop offset="100%" stop-color="#f9a8d4"/>
    </linearGradient>
    <linearGradient id="heartGrad" x1="60" y1="2" x2="60" y2="82" gradientUnits="userSpaceOnUse">
      <stop offset="0%" stop-color="#fb7185"/>
      <stop offset="100%" stop-color="#e11d48"/>
    </linearGradient>
  </defs>
  <rect x="14" y="38" width="92" height="62" rx="8" fill="url(#envGrad)"/>
  <path d="M14 44c0-3 1.5-5.5 4-7L60 14l42 23c2.5 1.5 4 4 4 7" fill="#fda4af"/>
  <rect x="14" y="38" width="92" height="2.5" rx="1" fill="white" opacity="0.35"/>
  <path d="M60 88C60 88 18 56 12 36c-5-14-1-28 12-32s24 2 26 12l10 18 10-18c2-10 13-16 26-12s17 18 12 32C102 56 60 88 60 88z" fill="url(#heartGrad)"/>
  <ellipse cx="40" cy="28" rx="9" ry="7" fill="white" opacity="0.25" transform="rotate(-15 40 28)"/>
</svg>
